<mxfile host="app.diagrams.net" modified="2024-04-24T20:00:03.250Z" agent="Mozilla/5.0 (Windows NT 10.0; Win64; x64) AppleWebKit/537.36 (KHTML, like Gecko) Chrome/124.0.0.0 Safari/537.36" etag="OmTT47jfWw9Jw9hpr6Od" version="24.2.8" type="device">
  <diagram name="Page-1" id="pJsy0WTzSsjwJuBZErb2">
    <mxGraphModel dx="1687" dy="868" grid="1" gridSize="10" guides="1" tooltips="1" connect="1" arrows="1" fold="1" page="1" pageScale="1" pageWidth="827" pageHeight="1169" math="0" shadow="0">
      <root>
        <mxCell id="0" />
        <mxCell id="1" parent="0" />
        <mxCell id="b-xrfG6LzdTy0WrD1sqA-53" style="edgeStyle=orthogonalEdgeStyle;rounded=0;orthogonalLoop=1;jettySize=auto;html=1;strokeColor=default;strokeWidth=3;align=center;verticalAlign=middle;fontFamily=Helvetica;fontSize=11;fontColor=default;labelBackgroundColor=default;endArrow=classic;" parent="1" source="b-xrfG6LzdTy0WrD1sqA-40" edge="1">
          <mxGeometry relative="1" as="geometry">
            <mxPoint x="1115" y="1000" as="targetPoint" />
          </mxGeometry>
        </mxCell>
        <mxCell id="b-xrfG6LzdTy0WrD1sqA-3" style="edgeStyle=orthogonalEdgeStyle;rounded=0;orthogonalLoop=1;jettySize=auto;html=1;strokeWidth=3;" parent="1" source="b-xrfG6LzdTy0WrD1sqA-1" target="b-xrfG6LzdTy0WrD1sqA-2" edge="1">
          <mxGeometry relative="1" as="geometry" />
        </mxCell>
        <mxCell id="b-xrfG6LzdTy0WrD1sqA-1" value="&lt;font style=&quot;font-size: 15px;&quot;&gt;Start&lt;/font&gt;" style="ellipse;whiteSpace=wrap;html=1;fillColor=#d5e8d4;strokeColor=#82b366;" parent="1" vertex="1">
          <mxGeometry x="327" y="50" width="146" height="70" as="geometry" />
        </mxCell>
        <mxCell id="b-xrfG6LzdTy0WrD1sqA-6" style="edgeStyle=orthogonalEdgeStyle;rounded=0;orthogonalLoop=1;jettySize=auto;html=1;strokeWidth=3;" parent="1" source="b-xrfG6LzdTy0WrD1sqA-2" target="b-xrfG6LzdTy0WrD1sqA-4" edge="1">
          <mxGeometry relative="1" as="geometry" />
        </mxCell>
        <mxCell id="b-xrfG6LzdTy0WrD1sqA-2" value="&lt;font style=&quot;font-size: 15px;&quot;&gt;Receive user question data from existing files&amp;nbsp;&lt;/font&gt;" style="rounded=0;whiteSpace=wrap;html=1;fillColor=#dae8fc;strokeColor=#6c8ebf;" parent="1" vertex="1">
          <mxGeometry x="330" y="170" width="140" height="60" as="geometry" />
        </mxCell>
        <mxCell id="b-xrfG6LzdTy0WrD1sqA-21" style="edgeStyle=orthogonalEdgeStyle;rounded=0;orthogonalLoop=1;jettySize=auto;html=1;strokeColor=default;strokeWidth=3;align=center;verticalAlign=middle;fontFamily=Helvetica;fontSize=11;fontColor=default;labelBackgroundColor=default;endArrow=classic;" parent="1" source="b-xrfG6LzdTy0WrD1sqA-4" target="b-xrfG6LzdTy0WrD1sqA-14" edge="1">
          <mxGeometry relative="1" as="geometry" />
        </mxCell>
        <mxCell id="b-xrfG6LzdTy0WrD1sqA-4" value="&lt;span style=&quot;font-size: 15px;&quot;&gt;Tokenize words in user question&lt;/span&gt;" style="rounded=0;whiteSpace=wrap;html=1;fillColor=#dae8fc;strokeColor=#6c8ebf;" parent="1" vertex="1">
          <mxGeometry x="330" y="270" width="140" height="60" as="geometry" />
        </mxCell>
        <mxCell id="b-xrfG6LzdTy0WrD1sqA-11" style="edgeStyle=orthogonalEdgeStyle;rounded=0;orthogonalLoop=1;jettySize=auto;html=1;strokeColor=default;strokeWidth=3;align=center;verticalAlign=middle;fontFamily=Helvetica;fontSize=11;fontColor=default;labelBackgroundColor=default;endArrow=classic;" parent="1" source="b-xrfG6LzdTy0WrD1sqA-8" target="b-xrfG6LzdTy0WrD1sqA-10" edge="1">
          <mxGeometry relative="1" as="geometry" />
        </mxCell>
        <mxCell id="b-xrfG6LzdTy0WrD1sqA-8" value="&lt;span style=&quot;font-size: 15px;&quot;&gt;Make all words that have been tokened to lower case&lt;/span&gt;" style="rounded=0;whiteSpace=wrap;html=1;fillColor=#dae8fc;strokeColor=#6c8ebf;" parent="1" vertex="1">
          <mxGeometry x="544" y="395" width="140" height="60" as="geometry" />
        </mxCell>
        <mxCell id="b-xrfG6LzdTy0WrD1sqA-13" style="edgeStyle=orthogonalEdgeStyle;rounded=0;orthogonalLoop=1;jettySize=auto;html=1;entryX=0.5;entryY=0;entryDx=0;entryDy=0;strokeColor=default;strokeWidth=3;align=center;verticalAlign=middle;fontFamily=Helvetica;fontSize=11;fontColor=default;labelBackgroundColor=default;endArrow=classic;" parent="1" source="b-xrfG6LzdTy0WrD1sqA-10" target="b-xrfG6LzdTy0WrD1sqA-12" edge="1">
          <mxGeometry relative="1" as="geometry" />
        </mxCell>
        <mxCell id="b-xrfG6LzdTy0WrD1sqA-10" value="&lt;span style=&quot;font-size: 15px;&quot;&gt;Stem all words to rote meaning.&lt;/span&gt;" style="rounded=0;whiteSpace=wrap;html=1;fillColor=#dae8fc;strokeColor=#6c8ebf;" parent="1" vertex="1">
          <mxGeometry x="544" y="506" width="140" height="60" as="geometry" />
        </mxCell>
        <mxCell id="b-xrfG6LzdTy0WrD1sqA-17" style="edgeStyle=orthogonalEdgeStyle;rounded=0;orthogonalLoop=1;jettySize=auto;html=1;entryX=0;entryY=0.5;entryDx=0;entryDy=0;strokeColor=default;strokeWidth=3;align=center;verticalAlign=middle;fontFamily=Helvetica;fontSize=11;fontColor=default;labelBackgroundColor=default;endArrow=classic;" parent="1" source="b-xrfG6LzdTy0WrD1sqA-12" target="b-xrfG6LzdTy0WrD1sqA-16" edge="1">
          <mxGeometry relative="1" as="geometry" />
        </mxCell>
        <mxCell id="b-xrfG6LzdTy0WrD1sqA-12" value="&lt;span style=&quot;font-size: 15px;&quot;&gt;Stem all words to rote meaning.&lt;/span&gt;" style="rounded=0;whiteSpace=wrap;html=1;fillColor=#dae8fc;strokeColor=#6c8ebf;" parent="1" vertex="1">
          <mxGeometry x="544" y="611" width="140" height="60" as="geometry" />
        </mxCell>
        <mxCell id="b-xrfG6LzdTy0WrD1sqA-15" style="edgeStyle=orthogonalEdgeStyle;rounded=0;orthogonalLoop=1;jettySize=auto;html=1;strokeColor=default;strokeWidth=3;align=center;verticalAlign=middle;fontFamily=Helvetica;fontSize=11;fontColor=default;labelBackgroundColor=default;endArrow=classic;" parent="1" source="b-xrfG6LzdTy0WrD1sqA-14" target="b-xrfG6LzdTy0WrD1sqA-8" edge="1">
          <mxGeometry relative="1" as="geometry" />
        </mxCell>
        <mxCell id="b-xrfG6LzdTy0WrD1sqA-23" style="edgeStyle=orthogonalEdgeStyle;rounded=0;orthogonalLoop=1;jettySize=auto;html=1;strokeColor=default;strokeWidth=3;align=center;verticalAlign=middle;fontFamily=Helvetica;fontSize=11;fontColor=default;labelBackgroundColor=default;endArrow=classic;" parent="1" source="b-xrfG6LzdTy0WrD1sqA-14" target="b-xrfG6LzdTy0WrD1sqA-22" edge="1">
          <mxGeometry relative="1" as="geometry" />
        </mxCell>
        <mxCell id="b-xrfG6LzdTy0WrD1sqA-14" value="&lt;font style=&quot;font-size: 15px;&quot; face=&quot;Helvetica&quot;&gt;For each word&amp;nbsp;Tokenize.&lt;br&gt;(have all words gone through loop?)&lt;/font&gt;" style="rhombus;whiteSpace=wrap;html=1;fontFamily=Helvetica;fontSize=11;labelBackgroundColor=default;fillColor=#fff2cc;strokeColor=#d6b656;labelPosition=left;verticalLabelPosition=middle;align=right;verticalAlign=middle;textDirection=ltr;" parent="1" vertex="1">
          <mxGeometry x="341.5" y="370" width="117" height="110" as="geometry" />
        </mxCell>
        <mxCell id="b-xrfG6LzdTy0WrD1sqA-16" value="&lt;span style=&quot;font-size: 15px;&quot;&gt;Add words in verbal&lt;/span&gt;" style="rounded=0;whiteSpace=wrap;html=1;fillColor=#dae8fc;strokeColor=#6c8ebf;" parent="1" vertex="1">
          <mxGeometry x="750" y="611" width="140" height="60" as="geometry" />
        </mxCell>
        <mxCell id="b-xrfG6LzdTy0WrD1sqA-19" style="edgeStyle=orthogonalEdgeStyle;rounded=0;orthogonalLoop=1;jettySize=auto;html=1;entryX=0.673;entryY=0.124;entryDx=0;entryDy=0;entryPerimeter=0;strokeColor=default;strokeWidth=3;align=center;verticalAlign=middle;fontFamily=Helvetica;fontSize=11;fontColor=default;labelBackgroundColor=default;endArrow=classic;" parent="1" source="b-xrfG6LzdTy0WrD1sqA-16" target="b-xrfG6LzdTy0WrD1sqA-14" edge="1">
          <mxGeometry relative="1" as="geometry">
            <Array as="points">
              <mxPoint x="830" y="384" />
            </Array>
          </mxGeometry>
        </mxCell>
        <mxCell id="b-xrfG6LzdTy0WrD1sqA-20" value="&lt;font style=&quot;font-size: 15px;&quot;&gt;No&lt;/font&gt;" style="text;html=1;align=center;verticalAlign=middle;resizable=0;points=[];autosize=1;strokeColor=none;fillColor=none;fontFamily=Helvetica;fontSize=11;fontColor=default;labelBackgroundColor=default;" parent="1" vertex="1">
          <mxGeometry x="460" y="430" width="40" height="30" as="geometry" />
        </mxCell>
        <mxCell id="b-xrfG6LzdTy0WrD1sqA-25" style="edgeStyle=orthogonalEdgeStyle;rounded=0;orthogonalLoop=1;jettySize=auto;html=1;entryX=0.5;entryY=0;entryDx=0;entryDy=0;strokeColor=default;strokeWidth=3;align=center;verticalAlign=middle;fontFamily=Helvetica;fontSize=11;fontColor=default;labelBackgroundColor=default;endArrow=classic;" parent="1" source="b-xrfG6LzdTy0WrD1sqA-22" target="b-xrfG6LzdTy0WrD1sqA-24" edge="1">
          <mxGeometry relative="1" as="geometry" />
        </mxCell>
        <mxCell id="b-xrfG6LzdTy0WrD1sqA-22" value="&lt;span style=&quot;font-size: 15px;&quot;&gt;Initialise data .pth for words, extract words from file&lt;/span&gt;" style="rounded=0;whiteSpace=wrap;html=1;fillColor=#dae8fc;strokeColor=#6c8ebf;" parent="1" vertex="1">
          <mxGeometry x="330" y="525" width="140" height="60" as="geometry" />
        </mxCell>
        <mxCell id="b-xrfG6LzdTy0WrD1sqA-27" style="edgeStyle=orthogonalEdgeStyle;rounded=0;orthogonalLoop=1;jettySize=auto;html=1;strokeColor=default;strokeWidth=3;align=center;verticalAlign=middle;fontFamily=Helvetica;fontSize=11;fontColor=default;labelBackgroundColor=default;endArrow=classic;" parent="1" source="b-xrfG6LzdTy0WrD1sqA-24" target="b-xrfG6LzdTy0WrD1sqA-26" edge="1">
          <mxGeometry relative="1" as="geometry" />
        </mxCell>
        <mxCell id="b-xrfG6LzdTy0WrD1sqA-24" value="&lt;span style=&quot;text-align: left; white-space-collapse: preserve;&quot;&gt;&lt;font face=&quot;Helvetica&quot; style=&quot;font-size: 15px;&quot;&gt; Calculate the size of the vocabulary&lt;/font&gt;&lt;/span&gt;" style="rounded=0;whiteSpace=wrap;html=1;fillColor=#dae8fc;strokeColor=#6c8ebf;" parent="1" vertex="1">
          <mxGeometry x="330" y="640" width="140" height="60" as="geometry" />
        </mxCell>
        <mxCell id="b-xrfG6LzdTy0WrD1sqA-29" style="edgeStyle=orthogonalEdgeStyle;rounded=0;orthogonalLoop=1;jettySize=auto;html=1;entryX=0;entryY=0.5;entryDx=0;entryDy=0;strokeColor=default;strokeWidth=3;align=center;verticalAlign=middle;fontFamily=Helvetica;fontSize=11;fontColor=default;labelBackgroundColor=default;endArrow=classic;" parent="1" source="b-xrfG6LzdTy0WrD1sqA-26" target="b-xrfG6LzdTy0WrD1sqA-28" edge="1">
          <mxGeometry relative="1" as="geometry" />
        </mxCell>
        <mxCell id="b-xrfG6LzdTy0WrD1sqA-26" value="&lt;div style=&quot;text-align: left;&quot;&gt;&lt;span style=&quot;background-color: initial; font-size: 15px; white-space-collapse: preserve;&quot;&gt;&lt;font style=&quot;&quot; face=&quot;Helvetica&quot;&gt;Set datatype to flout&lt;/font&gt;&lt;/span&gt;&lt;/div&gt;" style="rounded=0;whiteSpace=wrap;html=1;fillColor=#dae8fc;strokeColor=#6c8ebf;" parent="1" vertex="1">
          <mxGeometry x="330" y="760" width="140" height="60" as="geometry" />
        </mxCell>
        <mxCell id="b-xrfG6LzdTy0WrD1sqA-31" style="edgeStyle=orthogonalEdgeStyle;rounded=0;orthogonalLoop=1;jettySize=auto;html=1;strokeColor=default;strokeWidth=3;align=center;verticalAlign=middle;fontFamily=Helvetica;fontSize=11;fontColor=default;labelBackgroundColor=default;endArrow=classic;" parent="1" source="b-xrfG6LzdTy0WrD1sqA-28" target="b-xrfG6LzdTy0WrD1sqA-30" edge="1">
          <mxGeometry relative="1" as="geometry" />
        </mxCell>
        <mxCell id="b-xrfG6LzdTy0WrD1sqA-28" value="&lt;div style=&quot;&quot;&gt;&lt;span style=&quot;font-size: 15px; white-space-collapse: preserve;&quot;&gt;Make zero array based on size of vocabulary&lt;/span&gt;&lt;/div&gt;" style="rounded=0;whiteSpace=wrap;html=1;fillColor=#dae8fc;strokeColor=#6c8ebf;align=center;" parent="1" vertex="1">
          <mxGeometry x="530" y="760" width="140" height="60" as="geometry" />
        </mxCell>
        <mxCell id="b-xrfG6LzdTy0WrD1sqA-47" style="edgeStyle=orthogonalEdgeStyle;rounded=0;orthogonalLoop=1;jettySize=auto;html=1;exitX=0.5;exitY=0;exitDx=0;exitDy=0;entryX=0;entryY=0.5;entryDx=0;entryDy=0;strokeColor=default;strokeWidth=3;align=center;verticalAlign=middle;fontFamily=Helvetica;fontSize=11;fontColor=default;labelBackgroundColor=default;endArrow=classic;" parent="1" source="b-xrfG6LzdTy0WrD1sqA-30" target="b-xrfG6LzdTy0WrD1sqA-33" edge="1">
          <mxGeometry relative="1" as="geometry">
            <Array as="points">
              <mxPoint x="910" y="735" />
              <mxPoint x="910" y="641" />
            </Array>
          </mxGeometry>
        </mxCell>
        <mxCell id="ds3PcpNgZRr3I1B1bl0V-2" style="edgeStyle=orthogonalEdgeStyle;rounded=0;orthogonalLoop=1;jettySize=auto;html=1;exitX=1;exitY=0.5;exitDx=0;exitDy=0;strokeWidth=3;" parent="1" source="b-xrfG6LzdTy0WrD1sqA-30" target="ds3PcpNgZRr3I1B1bl0V-1" edge="1">
          <mxGeometry relative="1" as="geometry">
            <Array as="points">
              <mxPoint x="930" y="790" />
              <mxPoint x="930" y="710" />
            </Array>
          </mxGeometry>
        </mxCell>
        <mxCell id="b-xrfG6LzdTy0WrD1sqA-30" value="&lt;div style=&quot;font-size: 15px;&quot;&gt;&lt;font style=&quot;font-size: 15px;&quot;&gt;for each word&lt;/font&gt;&lt;/div&gt;&lt;div style=&quot;font-size: 15px;&quot;&gt;&lt;font style=&quot;font-size: 15px;&quot;&gt;(&lt;/font&gt;is words in&lt;/div&gt;&lt;div style=&quot;font-size: 15px;&quot;&gt;&amp;nbsp;variable in the&amp;nbsp;&lt;span style=&quot;white-space-collapse: preserve;&quot;&gt;vocabulary?)&lt;/span&gt;&amp;nbsp;&amp;nbsp;&lt;/div&gt;" style="rhombus;whiteSpace=wrap;html=1;fontFamily=Helvetica;fontSize=11;labelBackgroundColor=default;labelPosition=center;verticalLabelPosition=bottom;align=center;verticalAlign=top;fillColor=#fff2cc;strokeColor=#d6b656;" parent="1" vertex="1">
          <mxGeometry x="760" y="735" width="130" height="110" as="geometry" />
        </mxCell>
        <mxCell id="b-xrfG6LzdTy0WrD1sqA-44" style="edgeStyle=orthogonalEdgeStyle;rounded=0;orthogonalLoop=1;jettySize=auto;html=1;entryX=0.5;entryY=0;entryDx=0;entryDy=0;strokeColor=default;strokeWidth=3;align=center;verticalAlign=middle;fontFamily=Helvetica;fontSize=11;fontColor=default;labelBackgroundColor=default;endArrow=classic;" parent="1" source="b-xrfG6LzdTy0WrD1sqA-33" target="b-xrfG6LzdTy0WrD1sqA-40" edge="1">
          <mxGeometry relative="1" as="geometry">
            <Array as="points">
              <mxPoint x="1115" y="641" />
            </Array>
          </mxGeometry>
        </mxCell>
        <mxCell id="b-xrfG6LzdTy0WrD1sqA-33" value="&lt;span style=&quot;font-size: 15px;&quot;&gt;Add 1 to vocabulary&lt;/span&gt;" style="rounded=0;whiteSpace=wrap;html=1;fillColor=#dae8fc;strokeColor=#6c8ebf;" parent="1" vertex="1">
          <mxGeometry x="950" y="611" width="140" height="60" as="geometry" />
        </mxCell>
        <mxCell id="b-xrfG6LzdTy0WrD1sqA-37" value="&lt;span style=&quot;font-size: 15px;&quot;&gt;Yes&lt;/span&gt;" style="text;html=1;align=center;verticalAlign=middle;resizable=0;points=[];autosize=1;strokeColor=none;fillColor=none;fontFamily=Helvetica;fontSize=11;fontColor=default;labelBackgroundColor=default;" parent="1" vertex="1">
          <mxGeometry x="341.5" y="480" width="50" height="30" as="geometry" />
        </mxCell>
        <mxCell id="b-xrfG6LzdTy0WrD1sqA-38" value="&lt;span style=&quot;font-size: 15px;&quot;&gt;Yes&lt;/span&gt;" style="text;html=1;align=center;verticalAlign=middle;resizable=0;points=[];autosize=1;strokeColor=none;fillColor=none;fontFamily=Helvetica;fontSize=11;fontColor=default;labelBackgroundColor=default;" parent="1" vertex="1">
          <mxGeometry x="850" y="680" width="50" height="30" as="geometry" />
        </mxCell>
        <mxCell id="b-xrfG6LzdTy0WrD1sqA-51" style="edgeStyle=orthogonalEdgeStyle;rounded=0;orthogonalLoop=1;jettySize=auto;html=1;entryX=1;entryY=1;entryDx=0;entryDy=0;strokeColor=default;strokeWidth=3;align=center;verticalAlign=middle;fontFamily=Helvetica;fontSize=11;fontColor=default;labelBackgroundColor=default;endArrow=classic;" parent="1" source="b-xrfG6LzdTy0WrD1sqA-40" target="b-xrfG6LzdTy0WrD1sqA-30" edge="1">
          <mxGeometry relative="1" as="geometry" />
        </mxCell>
        <mxCell id="b-xrfG6LzdTy0WrD1sqA-40" value="&lt;div style=&quot;font-size: 15px;&quot;&gt;Is that all the words from the variable&amp;nbsp;&lt;/div&gt;" style="rhombus;whiteSpace=wrap;html=1;fontFamily=Helvetica;fontSize=11;labelBackgroundColor=default;labelPosition=right;verticalLabelPosition=middle;align=left;verticalAlign=middle;fillColor=#fff2cc;strokeColor=#d6b656;" parent="1" vertex="1">
          <mxGeometry x="1050" y="735" width="130" height="110" as="geometry" />
        </mxCell>
        <mxCell id="b-xrfG6LzdTy0WrD1sqA-45" value="&lt;span style=&quot;font-size: 15px;&quot;&gt;No&lt;/span&gt;" style="text;html=1;align=center;verticalAlign=middle;resizable=0;points=[];autosize=1;strokeColor=none;fillColor=none;fontFamily=Helvetica;fontSize=11;fontColor=default;labelBackgroundColor=default;" parent="1" vertex="1">
          <mxGeometry x="870" y="750" width="40" height="30" as="geometry" />
        </mxCell>
        <mxCell id="b-xrfG6LzdTy0WrD1sqA-52" value="&lt;span style=&quot;font-size: 15px;&quot;&gt;No&lt;/span&gt;" style="text;html=1;align=center;verticalAlign=middle;resizable=0;points=[];autosize=1;strokeColor=none;fillColor=none;fontFamily=Helvetica;fontSize=11;fontColor=default;labelBackgroundColor=default;" parent="1" vertex="1">
          <mxGeometry x="990" y="800" width="40" height="30" as="geometry" />
        </mxCell>
        <mxCell id="_L7UL09PzMmzvnBW2o_6-1" style="edgeStyle=orthogonalEdgeStyle;rounded=0;orthogonalLoop=1;jettySize=auto;html=1;entryX=0.5;entryY=0;entryDx=0;entryDy=0;strokeWidth=3;" edge="1" parent="1" source="ds3PcpNgZRr3I1B1bl0V-1" target="b-xrfG6LzdTy0WrD1sqA-40">
          <mxGeometry relative="1" as="geometry">
            <Array as="points">
              <mxPoint x="1115" y="710" />
            </Array>
          </mxGeometry>
        </mxCell>
        <mxCell id="ds3PcpNgZRr3I1B1bl0V-1" value="&lt;span style=&quot;font-size: 15px;&quot;&gt;Keep 0 in vocabulary&amp;nbsp;&lt;/span&gt;" style="rounded=0;whiteSpace=wrap;html=1;fillColor=#dae8fc;strokeColor=#6c8ebf;" parent="1" vertex="1">
          <mxGeometry x="950" y="680" width="140" height="60" as="geometry" />
        </mxCell>
        <mxCell id="ds3PcpNgZRr3I1B1bl0V-7" style="edgeStyle=orthogonalEdgeStyle;rounded=0;orthogonalLoop=1;jettySize=auto;html=1;" parent="1" source="ds3PcpNgZRr3I1B1bl0V-3" target="ds3PcpNgZRr3I1B1bl0V-5" edge="1">
          <mxGeometry relative="1" as="geometry" />
        </mxCell>
        <mxCell id="ds3PcpNgZRr3I1B1bl0V-3" value="&lt;span style=&quot;font-size: 15px;&quot;&gt;return numbers /&lt;/span&gt;&lt;span style=&quot;font-size: 15px;&quot;&gt;vocabulary&lt;/span&gt;" style="rounded=0;whiteSpace=wrap;html=1;fillColor=#dae8fc;strokeColor=#6c8ebf;" parent="1" vertex="1">
          <mxGeometry x="1050" y="1000" width="140" height="60" as="geometry" />
        </mxCell>
        <mxCell id="ds3PcpNgZRr3I1B1bl0V-5" value="&lt;span style=&quot;font-size: 15px;&quot;&gt;End&lt;/span&gt;" style="ellipse;whiteSpace=wrap;html=1;fillColor=#d5e8d4;strokeColor=#82b366;" parent="1" vertex="1">
          <mxGeometry x="1047" y="1100" width="146" height="70" as="geometry" />
        </mxCell>
        <mxCell id="ds3PcpNgZRr3I1B1bl0V-8" value="&lt;span style=&quot;font-size: 15px;&quot;&gt;Yes&lt;/span&gt;" style="text;html=1;align=center;verticalAlign=middle;resizable=0;points=[];autosize=1;strokeColor=none;fillColor=none;fontFamily=Helvetica;fontSize=11;fontColor=default;labelBackgroundColor=default;" parent="1" vertex="1">
          <mxGeometry x="1060" y="930" width="50" height="30" as="geometry" />
        </mxCell>
      </root>
    </mxGraphModel>
  </diagram>
</mxfile>
